<mxfile host="app.diagrams.net" agent="Mozilla/5.0 (Macintosh; Intel Mac OS X 10_15_7) AppleWebKit/537.36 (KHTML, like Gecko) Chrome/129.0.0.0 Safari/537.36" version="24.7.16">
  <diagram id="f106602c-feb2-e66a-4537-3a34d633f6aa" name="Page-1">
    <mxGraphModel dx="914" dy="580" grid="1" gridSize="10" guides="1" tooltips="1" connect="1" arrows="1" fold="1" page="1" pageScale="1" pageWidth="1169" pageHeight="827" background="none" math="0" shadow="0">
      <root>
        <mxCell id="0" />
        <mxCell id="1" parent="0" />
        <mxCell id="Lif8JBEafslfNm7ranTe-1" value="&lt;span&gt;Google &lt;/span&gt;Cloud Platform" style="fillColor=#F6F6F6;strokeColor=none;shadow=0;gradientColor=none;fontSize=14;align=left;spacing=10;fontColor=#717171;9E9E9E;verticalAlign=top;spacingTop=-4;fontStyle=0;spacingLeft=40;html=1;horizontal=1;" parent="1" vertex="1">
          <mxGeometry x="320" y="160" width="510" height="360" as="geometry" />
        </mxCell>
        <mxCell id="Lif8JBEafslfNm7ranTe-2" value="" style="shape=mxgraph.gcp2.google_cloud_platform;fillColor=#F6F6F6;strokeColor=none;shadow=0;gradientColor=none;" parent="Lif8JBEafslfNm7ranTe-1" vertex="1">
          <mxGeometry width="23" height="20" relative="1" as="geometry">
            <mxPoint x="20" y="10" as="offset" />
          </mxGeometry>
        </mxCell>
        <mxCell id="0QRVZLjizYABk1ugPUcg-10" style="edgeStyle=orthogonalEdgeStyle;rounded=0;orthogonalLoop=1;jettySize=auto;html=1;entryX=1;entryY=0.5;entryDx=0;entryDy=0;" parent="Lif8JBEafslfNm7ranTe-1" source="0QRVZLjizYABk1ugPUcg-1" target="0QRVZLjizYABk1ugPUcg-9" edge="1">
          <mxGeometry relative="1" as="geometry" />
        </mxCell>
        <mxCell id="0QRVZLjizYABk1ugPUcg-1" value="BigQuery" style="sketch=0;html=1;verticalAlign=top;labelPosition=center;verticalLabelPosition=bottom;align=center;spacingTop=-6;fontSize=11;fontStyle=1;fontColor=#999999;shape=image;aspect=fixed;imageAspect=0;image=data:image/svg+xml,PHN2ZyB4bWxucz0iaHR0cDovL3d3dy53My5vcmcvMjAwMC9zdmciIHhtbG5zOnY9Imh0dHBzOi8vdmVjdGEuaW8vbmFubyIgd2lkdGg9IjIwLjAwMTA0NTIyNzA1MDc4IiBoZWlnaHQ9IjIwLjAwMTA0NTIyNzA1MDc4IiBmaWxsLXJ1bGU9ImV2ZW5vZGQiIHZpZXdCb3g9IjAgMCAyMC4wMDEwNDUyMjcwNTA3OCAyMC4wMDEwNDUyMjcwNTA3OCI+JiN4YTsJPHN0eWxlIHR5cGU9InRleHQvY3NzIj4mI3hhOwkuc3Qwe2ZpbGw6I2FlY2JmYTt9JiN4YTsJLnN0MXtmaWxsOiM2NjlkZjY7fSYjeGE7CS5zdDJ7ZmlsbDojNDI4NWY0O30mI3hhOwk8L3N0eWxlPiYjeGE7CTxwYXRoIGNsYXNzPSJzdDAiIGQ9Ik00LjczIDguODN2Mi42M2E0LjkxIDQuOTEgMCAwIDAgMS43MSAxLjc0VjguODN6Ii8+JiN4YTsJPHBhdGggY2xhc3M9InN0MSIgZD0iTTcuODkgNi40MXY3LjUzQTcuNjIgNy42MiAwIDAgMCA5IDE0YTggOCAwIDAgMCAxIDBWNi40MXoiLz4mI3hhOwk8cGF0aCBjbGFzcz0ic3QwIiBkPSJNMTEuNjQgOS44NnYzLjI5YTUgNSAwIDAgMCAxLjctMS44MlY5Ljg2eiIvPiYjeGE7CTxwYXRoIGNsYXNzPSJzdDIiIGQ9Ik0xNS43NCAxNC4zMmwtMS40MiAxLjQyYS40Mi40MiAwIDAgMCAwIC42bDMuNTQgMy41NGEuNDIuNDIgMCAwIDAgLjU5IDBsMS40My0xLjQzYS40Mi40MiAwIDAgMCAwLS41OWwtMy41NC0zLjU0YS40Mi40MiAwIDAgMC0uNiAwIi8+JiN4YTsJPHBhdGggY2xhc3M9InN0MSIgZD0iTTkgMGE5IDkgMCAxIDAgMCAxOEE5IDkgMCAxIDAgOSAwbTAgMTUuNjlhNi42OCA2LjY4IDAgMCAxIC4wMDctMTMuMzYgNi42OCA2LjY4IDAgMCAxIDQuNzI3IDExLjQwM0E2LjY4IDYuNjggMCAwIDEgOSAxNS42OSIvPiYjeGE7PC9zdmc+;" parent="Lif8JBEafslfNm7ranTe-1" vertex="1">
          <mxGeometry x="361.4347826086956" y="184.75159429791535" width="41.94340968534517" height="41.94340968534517" as="geometry" />
        </mxCell>
        <mxCell id="0QRVZLjizYABk1ugPUcg-7" style="edgeStyle=orthogonalEdgeStyle;rounded=0;orthogonalLoop=1;jettySize=auto;html=1;" parent="Lif8JBEafslfNm7ranTe-1" source="0QRVZLjizYABk1ugPUcg-2" target="0QRVZLjizYABk1ugPUcg-6" edge="1">
          <mxGeometry relative="1" as="geometry" />
        </mxCell>
        <mxCell id="0QRVZLjizYABk1ugPUcg-2" value="Cloud&#xa;Storage" style="sketch=0;html=1;verticalAlign=top;labelPosition=center;verticalLabelPosition=bottom;align=center;spacingTop=-6;fontSize=11;fontStyle=1;fontColor=#999999;shape=image;aspect=fixed;imageAspect=0;image=data:image/svg+xml,PHN2ZyB4bWxucz0iaHR0cDovL3d3dy53My5vcmcvMjAwMC9zdmciIHhtbG5zOnY9Imh0dHBzOi8vdmVjdGEuaW8vbmFubyIgd2lkdGg9IjIwIiBoZWlnaHQ9IjE2IiB2aWV3Qm94PSIwIDAgMjAgMTYiPiYjeGE7CTxzdHlsZSB0eXBlPSJ0ZXh0L2NzcyI+JiN4YTsJLnN0MHtmaWxsOiM0Mjg1ZjQ7fSYjeGE7CS5zdDF7ZmlsbDojNjY5ZGY2O30mI3hhOwkuc3Qye2ZpbGw6I2FlY2JmYTt9JiN4YTsJLnN0M3tmaWxsOiNmZmY7fSYjeGE7CTwvc3R5bGU+JiN4YTsJPHBhdGggY2xhc3M9InN0MiIgZD0iTTAgMGgyMHY3SDB6Ii8+JiN4YTsJPHBhdGggY2xhc3M9InN0MSIgZD0iTTE4IDBoMnY3aC0yeiIvPiYjeGE7CTxwYXRoIGNsYXNzPSJzdDAiIGQ9Ik0xOCA3bDItN2gtMnoiLz4mI3hhOwk8cGF0aCBjbGFzcz0ic3QxIiBkPSJNMCAwaDJ2N0gweiIvPiYjeGE7CTxnIGNsYXNzPSJzdDMiPiYjeGE7CQk8cGF0aCBkPSJNNCAzaDZ2MUg0eiIvPiYjeGE7CQk8cmVjdCB4PSIxMyIgeT0iMiIgd2lkdGg9IjMiIGhlaWdodD0iMyIgcng9IjEuNSIvPiYjeGE7CTwvZz4mI3hhOwk8cGF0aCBjbGFzcz0ic3QyIiBkPSJNMCA5aDIwdjdIMHoiLz4mI3hhOwk8cGF0aCBjbGFzcz0ic3QxIiBkPSJNMTggOWgydjdoLTJ6Ii8+JiN4YTsJPHBhdGggY2xhc3M9InN0MCIgZD0iTTE4IDE2bDItN2gtMnoiLz4mI3hhOwk8cGF0aCBjbGFzcz0ic3QxIiBkPSJNMCA5aDJ2N0gweiIvPiYjeGE7CTxnIGNsYXNzPSJzdDMiPiYjeGE7CQk8cGF0aCBkPSJNNCAxMmg2djFINHoiLz4mI3hhOwkJPHJlY3QgeD0iMTMiIHk9IjExIiB3aWR0aD0iMyIgaGVpZ2h0PSIzIiByeD0iMS41Ii8+JiN4YTsJPC9nPiYjeGE7PC9zdmc+;" parent="Lif8JBEafslfNm7ranTe-1" vertex="1">
          <mxGeometry x="195.1304347826087" y="60.01010002569304" width="41.94340968534517" height="33.95418879289847" as="geometry" />
        </mxCell>
        <mxCell id="0QRVZLjizYABk1ugPUcg-5" value="" style="edgeStyle=orthogonalEdgeStyle;rounded=0;orthogonalLoop=1;jettySize=auto;html=1;" parent="Lif8JBEafslfNm7ranTe-1" source="0QRVZLjizYABk1ugPUcg-4" target="0QRVZLjizYABk1ugPUcg-2" edge="1">
          <mxGeometry relative="1" as="geometry" />
        </mxCell>
        <mxCell id="0QRVZLjizYABk1ugPUcg-4" value="" style="shape=image;verticalLabelPosition=bottom;labelBackgroundColor=default;verticalAlign=top;aspect=fixed;imageAspect=0;image=data:image/jpeg,/9j/4AAQSkZJRgABAQAAAQABAAD/2wCEAAkGBxANDw0OEA0PDQ8PEBAOEA8NDxAPDQ0NFxEWFhYRFRgaHiggGBolGxMVITEhJykvLjEuFx8zOTMuNyk5LjcBCgoKDg0OGxAQGCsmHSUtMistKy0zLy8rLS4rKysrLS0tLSsyNy0tLS0vLS0rLS0tMjcrLS0tLSstLS0tLS0tLf/AABEIAOsA1gMBEQACEQEDEQH/xAAcAAEAAgMBAQEAAAAAAAAAAAAAAQIEBQYHAwj/xABMEAACAQIBBQkJDAgHAQAAAAAAAQIDEQQFBhIhMRNBUVRhcYGRsQcUIjJSoaLB0RczU2JjcnOTlLPS4xUkNIKSsuHwFiM1QoPC8SX/xAAaAQEBAAMBAQAAAAAAAAAAAAAAAQIEBQMG/8QAOhEBAAECAgQLBwMDBQAAAAAAAAECAwQREiExUgUTFDJBUWFxgaGxM2KRwdHh8BU0oiJCUyMkY3Lx/9oADAMBAAIRAxEAPwD3EAAAAAAADR5azpw2Dbg5OrVW2nSs3F/GeyPNt5D3t4euvX0PC5iKKNXS5TG5+4id1SpUqK5b1J9epeY26cHRG2c2pVjK52Rk02IzlxtTxsXVX0dqf8qR6xYtx/a8Zv3J/uYFXKFeXjYitL51Wcu1npFFMdEMNOrrljTm3tbfO2ypmqptbG1zOwH0hj60fFr1o/Nqzj2Mx0aZ6IZadXXLLoZyY2n4uMr/AL890/nuYTZtz/bDOL1yNlUtxk/uhYum0qsaeJjv3W5VH0x1eieVWEonZqetOLrjbrdzkDObDY9WpycKqV3RqWVRLhW9Jcq6bGlcs1W9uxu271NzZtbo8nqAAAAAAAAAAAAAAAAAHM58ZclhKUaVKWjVrX8JbadNbZLgbukungNrDWorqznZDVxV2aKco2y8ybOm5jNwWRsTiI6dLD1KkfKStF8zdk+g86rtFOqZelNquqM4hh4vDVKMnCrTnSmtejOLi7cK4VymVNUVRnEsaqZpnKYfBsyYqtkVVsCrYFWFVYE06soSjOEnCcWpRlF2lGS3094kxnqkictcPXcyM5f0hScalliKNlUtqVSL2VEujWt586OZfs8XOrY6li9xka9sOlNd7gAAAAAAAAAAAAAAADy/ugVtLHTj8HTpw8zn/wBzqYSMrbl4uc7jXZs4COKxdCjPXBtymuGEYuWj02S6T0vV6FEzDzs0adcRL2CEVFKKSSSSSSsklsSOO7DS545MhicHWulp0oSrU5f7oyirtczSs/6Hth65prjteOIoiuiex4+2dZyVWwKtgVYVVgVbIKtgbnM3KDw2Pws09U5qhNcMKjUdfIpOL/dPK/TpW5+L1s1aNyJ8Pi9uOS6wAAAAAAAAAAAAAAAA8nz4f/0MT/xfcwOthvZR+dLk4n2s/nQ12RMovCYijXS0lCXhRW2UGnGSXLZvpsZ3KNOmaWFuvQqip7Bk/H0sTBVKNSNSL8l64vga2p8jORVRVTOUw69NdNUZxLns+M4aVChVw0JqderF03GLvuUJK0pS4HZuy26zYw9maqoqnZDXxN6KaZpjbLyxs6TmqtgVbCqsCGwKtkFWwr75Mf6xhvp6P3kTGvmz3LRzo736BOM7IAAAAAAAAAAAAAAAA8mz5/1DE/8AF9zA62G9lH50uTifaz+dDQNnu8FbkVQCrYFWwqGBVsCrZBVsKq2B98mP9Yw309H7yJjXzZ7lo50d79BnGdkAAAAAAAAAAAAAAAAcjl3Mp4zEVcR30qe6aHgbjp6OjCMdumr+LwG3axWhTFOTUu4XTqmrS8mv9zh8eX2b8w9OW+75/Z58i97y+6Pc3fHl9m/MJy33fP7HIve8vuj3NXx9fZvzBy33fP7HIve8vuj3NHx9fZvzBy33fP7LyL3vL7o9zN8fX2b8wct93z+xyOd7y+7g8bQ3KrWpX0tyqVKela2loycb23thuUznES06oymYY7ZUVbAq2FVbAyMlv9Yw309H7yJjXzZ7mVHOjvfoQ4zsAAAAAAAAAABWpUUE5Skoxim3KTSjFcLe8WIz2JM5bXI5Wz7pU244em67WrdJNwpX5N+Xm5zbt4OqddU5NS5jKY1Uxm53EZ646eypTpclOlFr0rmxGFtx0NacVcnpY7zwyhxp/VUPwGXJrW76pym7veiHnhlDjT+pofgHJrW76nKbu96KvPHKHG39TQ/AOTWt31OU3d70Q88socbf1OH/AAE5Na3fU5Rd3vRV555R42/qcP8AgHJrW76nKLu96KvPTKPG39Th/wAA5Na3fVeUXd70Q89Mo8bf1OH/AADk1rd9TlF3e9EPPXKPHH9Th/wDk9rd9TlF3e9Ghr1pVJTnJ3lOUpydkryk7t2Wraz2iMoyh5TOc5y+TYRVsKo2BVsDIyX+0Yb6ej95Exr5s9zKnnR3vf8AGVHGN07O6PmcfdrtWtKicpzdy1TFVWUsLvqfleaPsONy/Eb/AJR9GzxVHUd9T8rzR9g5fiN/yj6HFUdS0cbNbbS51Y9KOE71POyn87GM2KZ2MyhiFPZqe+mdjDYyi/GrVPU8K7c0vsbTzAAACJNJNt2S1tvUkgPLs7M45Y2bpwbjhoPwVs3Vr/fL1L1nVsWItxnO1yr9+bk5Rsc6zYa6GwKtgUbAq2RVWwKtgVYVDAq2QVbAq2FVbAq2BVsDJyV+0Yb6ej95Exr5s9zKnnR3vfcf4nSj5XhP2HjDvWOc1x8820XAgipjNxaadmi0XKqKoqpnXBNMTGUtvQq6cVLr5GfV4e/F63FcfkufXTozk+h7sQABy/dAyk6OGVGLtPENwfDuS1z67xXNJm1hKNKvOehq4u5o0ZR0vNGdNzFWwKtgVbAq2RVWwKtgVYVVgVbIKtgVbCqtgVbAq2QQBlZK/aMN9PR+8iSvmz3MqedHe99yh4nSj5XhT2HjDvWOc1tz51touRUNkVFyDMyXU1yjwq65/wC+w6/BF7Kuq3PTr/Pzoa+Ip1RLZHfagAA8z7oeK08Yqd9VGlGNuCcryfmceo6eEpyt59bmYurO5l1OWbNpqqtgVbAq2RVWwKtgVbCqsCGyCjYFWwqrYFWwKtgQQANtmng3iMfgqa+GhUfzIPTl5ovrPO7Vo0TL0tU6VcQ9uylLwYrhd+pf1Pk+Fq8rdNPXPp/67uHjXMtc2cFtouYqi5FRcg+mFnozg+VLoer1mxg7mhfoq7fXUxuU50TDeH2DmgADxvOOvumMxc/lpxXNF6C80UdmzGVuI7HGvTncme1rGz0earYFWyKq2BVsCrYVVgQ2BVsgq2FVbAq2BVsCpAAAeqdzHNyWHhLG1ouNStHRpQkvChQum5PgcrLoS4bGhirsVTow38NayjSl02MracnbYtS9p8Xj8Rx13ONkaodm1Ro0se5pPVDZM1VuYqi5MxFyZq6GnK6T4UmfcW69OiKuuM3KmMpyWM0APDcTU0p1JeVOUuttnciMoycOqc5mXxbKirZFVbAo2BVsKhgVbAzMJkfFV0nSwtepF7JRpy0H+9a3nPOq5TTtlnTbqq2RLJeamUOJVfR9pjx9veZcRc3UPNTKHEqvo+0cfb3l4i5uqvNPKHEqvo+0cfb3jiLm6q80socRq+j7Rx9veOIubqP8I5R4jW9D2k4+3vHE3N0/wjlHiNb0PaOPt7xxNzdffC5j5RqtLvXc15VWpTjFc6TcupEnEW46VjD3J6Hb5s9z2lhpRrYmSxNWNpRglbD05cNnrm+V2XJvmrdxU1RlTqhtWsLFOurXLp8bi73jF879SPmcfwhExNu1PfPyj6upas9NTAucRtIuQQRUXJmqCKi5jmN7gnenT+al1aj7LAznhqO6HMvRlXL7m28wDwiorNrgbXUzuQ4cqNgVbAq2BVsKqwMzI+Sq2OqqjRjd7ZSeqFOPlSe8jC5ciiM5Z0W5rnKHqWQsz8LgUpyiq9Za3WrJWi/iR2R7eU5d/FTMZzOUOlaw1NPRnLdzxsVsu+bUjkV8KWadVOc/na3IsVSp3+vJfWjz/VqdyWXET1nf68l9aH6tTuScRPWd/ryX1ofq1O5JxE9Z3+vJfWh+rU7knET1nf68l9aJ+rUbknJ560fpBeS+tD9Xo3JOTz1qyyjwQ62edXDG7R8ZZRh+uWNWxMp7XZcC1I51/G3r2qqdXVGx7UWqadj4XNR6IuRVbkEGKhFVuQRcit7k73qHM+1n2HBv7Wju+bmX/aSyTeeQB4jlmlueJxUPJr1UubTdvMdq3OdET2OLcjKuY7WC2ZMVWwKtgVYVNKnKpKMIRcpzkoRitspt2SXSyTOUZyRGeqHtObuR6eTcMqas5u0q1RbalTk5FsSOLisTERNyrZDsWLOjEUxtWrVnN3ezeW8j5TEYmu/VnVs6I6nRooimNT5muzAAACLkEXIqGyKi5BVsxzVBFRcmaoIIuTNUNmKobIqrZB0WDjanTXxV2H22Cp0cPRHZHo5V2c65732Np5gHkmfuG3LH1nvVYwqrmcdF+lCR1cNVnbhysTTlclzjZ7vBVsCrYVDA6nubYFVsdujV1h6cqi4N0dox80pPoNbFVZUZdbZwtOdefU9MyhPWo8Gt858jwrdmaotx3u3Yp1ZsM5DYAAACCKi5BW5iqLkVFyCCKgioMVRcmYrciouRUXIqacdKUY+U0utmVuiblcUR0zl8UqnRiZdMlY+9iMoyhxklADge6lgtWGxKWxyoTfP4UOyfWb2Dq20+LRxlOyrwefNm80VWwqrAq2Qd73JF/mY5/FodtT2GnjNlPj8m5g9tXh83a4z3yXR2I+L4Qn/cVeHpDt2uZD4Gk9QCLkEXIqLkVFyCGyZqrcxVFyZiCKgiouRUXIIbMVVbIqCKzsj0tKppb0Ffpepes63A1jTv6c7KY851R82tiq8qMutvD6xzQABg5cybHGYeth5atOPgy8iotcZdDSM7dehVFTC5Rp0zS8RxVCdGc6VSLhOnJwlF70l/e07ETExnDkTExOUvgyohsCrZB33cj8fH/Nw/bVNPGbKfH5N3B7avD5u0xnvkujsR8Xwh+4q8PSHbtcyHxNJ6IuRUXIKtkVDZiqLkEEVFyZqgiouYiLkVVsiouQRcioIqCDocnYfc6aT8aXhS5HwH2fBuFnD2IirnTrn6eDlX7mnXq2Mo6DxAAADmM8M0449brTcaeJiraT8StHejO2x8D7d7YsX5t6p2Ne/Yi5rja8synk6vhJaFejOi72TkvAl82WyXQzo010166Zc6qiqjnQw2zJiq2B3/AHIvHx/zcP21TSxmynx+Tdwe2rw+btcb75Lo7EfF8IfuKvD0h27PMhjmi9UNkVFyCLkVFyKrcmYi5jmqLkVFyZiLkzVDZjmqGyZqi5MxBFEr6krvgWtsRE1TlGuSdTa5Oyc01OorW1xjy8LPouDeCqoqi7ejZsj5z9GlfxETGjT8W1PoWiAAAAABWcFJNNKSe1NXTAwZZEwjd3gsM3wuhSb7DPjK+uWHF0dUI/QOD4jhfs9L2Dja96Ti6N2GRhMn0KGk6NClR0raW5U4U9K17Xste19ZJqqq2ysU007IYeO98l0diPluEf3NXh6Q6FnmQx2zReqLkFbmOaoIqGyK21J0dGN9yvZXvo3vY+mtVYLi6dLQzyjqaNUXc5yz81tKh8l6B6aWA/4/4scr3b5mlQ+R9AmlgOu3/EyvdvmaVD5H0BpcH9dv+K5Xu3zRpYfho+gNPg/rt/xMr3b5ieH+R9ARVwfM5Rxf8TK92+b7d7U/g4fwxNnklj/HT8IefGV70ne1P4OH8MRyTD/46fhBxte9J3tT+Dh/DEckw/8Ajp+EHG170rwpqOyKjzJI9aLdFHNiI7mM1TO2VjNAAAAAAAAAAAAanHe+S6OxHy/CP7mrw9Ib1nmQxrmg9kXIIuRUEVBiqLkzFWyKi5FRciouYi1HxofOj2npZ9rT3x6pVzZdOffOMAAAAAAAAAAAAAAAANPj/fJdH8qPleEv3NXh6Q37HMhjXNB7IuTMQRUEVFyKi5BDZirIwWEdZvXaK2v1I3sDgasVVOvKmNs/KHldvRbjtZ8skwtqlJPhdmdirgOzNOVNU5+H0asYurPXENTiKLpycZbV1NcJ87icPXYuTbr2+va3qK4rpzhWj40PnR7TCx7Wnvj1Wvmy6g+/cYAAAAAAAAAAAAAAAAajKUbVHypP1eo+X4Vp0cRM9cRPy+Tfw850MS5zc3ugiouY5iLkVVsiouQRcit3kdrctW3Sd+f/AMsfWcDTTOG1bc5z/O7JzsVnxjOOq1mny41pQ4dF35r6vWfM8PTHGUR05T66vm38HnoywcLHSqU18aPVfWcnC0TXfopjrj1bNycqJnsdMfeOOAAAAAAAAAAAAAAAAMXH4fdI3XjR2cq4DncI4Sb9vOnnRs7ex7WbmhOvY0zPlZ1OircxEXIqGyKhsxVFyCCK++ExcqTutae2L2M3MHjbmFqzp1xO2PzZLyu2ouRrZ8ssK2qm78r1HXq4ep0f6aJz7Z1NaMHOeuWrrVXOTlJ3b/uxwL16u9XNdc65blNMUxlDZ5IwjX+bJb1ork8o73A2CmP9euP+v1+jTxV3P+iPFtT6FpAAAAAAAAAAAAAAAAABi4vBRqa14MuFbHznOxnB1vEf1Rqq6+vve9q/NGroaqvhJw2xuuGOtHzuIwN+zzqdXXGuPt4t2i7RVsljXNLN6ouRUEVBAAAfWjh51PFi3y73We9jC3r/ALOmZ7ej47GFdymjnS2mEyWo2lNqT8leKufhPoMHwNTbnTvTnPV0ff0aV3FTOqnU2R3GoAAAAAAAAAAAAAAAAAAAAA+NXC05+NBPl2PrRrXcHYu8+iO/p+Ma3pTdrp2Sxp5JpvY5R6U15zQr4Ew9XNmY/O17Ri6425Pi8jcFTrjf1mtVwDHRc8vuz5Z7osjfK+j/AFEcA9dzy+5yz3X0hkiC2yk+pI96OA7Ec6qqfh9GM4uvoiGTSwNKOyC55eF2m7a4Ow1vm0R46/V41X7lW2WQbryAAAAAAAAAAAAAAAAAAAAAAAAAAAAAAAAAAAAAAAAAAAAAAAAAAAABcCNICNMCNMBugDdAG6ATpgNICbgSAAAAAAAAAAAAAAAAAAKNgVbAo2BVsCNICNIBpANICykBKYF0wLJgXTAkAAAAAAAAAAAAAAABDiBRwAq4AVcAI0AI0AGgA0AJUALKAFlAC6iBYAAAAAAAAAAAAAAAAAAAACwEWAWAWAWAWAkAAAAAAAAAAAAAH//Z;" parent="Lif8JBEafslfNm7ranTe-1" vertex="1">
          <mxGeometry x="24.391304347826086" y="60.00703812316716" width="43.94071490845684" height="48.25489419037806" as="geometry" />
        </mxCell>
        <mxCell id="0QRVZLjizYABk1ugPUcg-8" style="edgeStyle=orthogonalEdgeStyle;rounded=0;orthogonalLoop=1;jettySize=auto;html=1;entryX=0.5;entryY=0;entryDx=0;entryDy=0;" parent="Lif8JBEafslfNm7ranTe-1" source="0QRVZLjizYABk1ugPUcg-6" target="0QRVZLjizYABk1ugPUcg-1" edge="1">
          <mxGeometry relative="1" as="geometry" />
        </mxCell>
        <mxCell id="0QRVZLjizYABk1ugPUcg-6" value="Cloud Data&#xa;Fusion" style="sketch=0;html=1;verticalAlign=top;labelPosition=center;verticalLabelPosition=bottom;align=center;spacingTop=-6;fontSize=11;fontStyle=1;fontColor=#999999;shape=image;aspect=fixed;imageAspect=0;image=data:image/svg+xml,PHN2ZyB4bWxucz0iaHR0cDovL3d3dy53My5vcmcvMjAwMC9zdmciIHhtbG5zOnY9Imh0dHBzOi8vdmVjdGEuaW8vbmFubyIgd2lkdGg9IjM3Ny4wNDk2OTgzMjc3ODkyNiIgaGVpZ2h0PSIzNzcuMjkxNTcwNzE1Nzg5NzYiIHZpZXdCb3g9IjAuMTMxMDAwNTE4Nzk4ODI4MTIgLTAuMTIxMDAwMDA2Nzk0OTI5NSA5OS43NjEwMDE1ODY5MTQwNiA5OS44MjQ5OTY5NDgyNDIxOSI+JiN4YTs8c3R5bGUgdHlwZT0idGV4dC9jc3MiPiYjeGE7CS5zdDB7ZmlsbDojNjY5ZGY2O30mI3hhOwkuc3Qxe2ZpbGw6IzQyODVmNDt9JiN4YTsJLnN0MntmaWxsOiNhZWNiZmE7fSYjeGE7PC9zdHlsZT4mI3hhOwk8cGF0aCBjbGFzcz0ic3QwIiBkPSJNODAuNTkzIDE5LjE4djIwLjE5OWgxOS4yOTlWOS41M2MwLTIuNTM3LS45NzktNC44NDYtMi41OC02LjU2OHptLTkuOTA4IDYxLjIyNUgxOS40MzFMMy40NSA5Ny4zMzdjMS42OTUgMS40NzQgMy45MDggMi4zNjcgNi4zMzEgMi4zNjdoNzAuNTU1YzIuODczIDAgNS40NTMtMS4yNTYgNy4yMjEtMy4yNDh6Ii8+JiN4YTsJPHBhdGggY2xhc3M9InN0MSIgZD0iTTg3LjU3MyA5Ni40MzdjMS41MDEtMS43MDEgMi40MTMtMy45MzUgMi40MTMtNi4zODJWNjAuMjA0SDcwLjY4NXYyMC4yMDF6Ii8+JiN4YTsJPHBhdGggY2xhc3M9InN0MiIgZD0iTTE5LjQzMSA4MC40MDVWMjkuMzRoMjAuNTc4VjEwLjA0SDkuNzgxYy01LjMzIDAtOS42NSA0LjMyMS05LjY1IDkuNjV2NzAuMzY1Yy4wMDEgMi45MDYgMS4yODYgNS41MTMgMy4zMiA3LjI4MXptNzcuODgtNzcuNDQzQzk1LjU1IDEuMDY2IDkzLjAzNi0uMTIgOTAuMjQ0LS4xMjFINTkuOTUxVjE5LjE4aDIwLjY0M3oiLz4mI3hhOzwvc3ZnPg==;" parent="Lif8JBEafslfNm7ranTe-1" vertex="1">
          <mxGeometry x="361.4347826086956" y="60.17595307917889" width="41.94340968534517" height="41.94340968534517" as="geometry" />
        </mxCell>
        <mxCell id="0QRVZLjizYABk1ugPUcg-9" value="Looker" style="sketch=0;html=1;verticalAlign=top;labelPosition=center;verticalLabelPosition=bottom;align=center;spacingTop=-6;fontSize=11;fontStyle=1;fontColor=#999999;shape=image;aspect=fixed;imageAspect=0;image=data:image/svg+xml,PHN2ZyB4bWxucz0iaHR0cDovL3d3dy53My5vcmcvMjAwMC9zdmciIGlkPSJzdmc4OTgwMSIgdmVyc2lvbj0iMS4xIiB2aWV3Qm94PSIwIDAgMjA4LjA1NjU1IDMzNC42MTMxNiIgaGVpZ2h0PSIzMzQuNjEzMTZtbSIgd2lkdGg9IjIwOC4wNTY1NW1tIj4mI3hhOyAgJiN4YTsgIDxkZWZzIGlkPSJkZWZzODk3OTgiLz4mI3hhOyAgPGcgdHJhbnNmb3JtPSJ0cmFuc2xhdGUoLTQuMjQ2MjUyNCwxNS42NzE5MTEpIiBpZD0ibGF5ZXIxIj4mI3hhOyAgICA8cGF0aCBpZD0icGF0aDkxODAyIiB0cmFuc2Zvcm09InNjYWxlKDAuMjY0NTgzMzMpIiBkPSJtIDQwOS4yMjI2Niw0MTkuMDk5NjEgYyAtMzYuNjA4MTEsMCAtNzIuMDc2NjcsNS4wNzUzIC0xMDUuNzUzOTEsMTQuNTMxMjUgbCA0OS4wMzUxNiwxMjAuMDQxMDIgYyAxOC4yNjE3MiwtMy45Mzg5OSAzNy4yMjE5NiwtNi4wNjgzNiA1Ni43MTg3NSwtNi4wNjgzNiAxNDYuOTM1MTQsMCAyNjQuNjc3NzMsMTE3LjczNDc3IDI2NC42Nzc3MywyNjQuNjY5OTIgMCwxNDYuOTM1MTQgLTExNy43NDI1OSwyNjQuNjY5OTYgLTI2NC42Nzc3MywyNjQuNjY5OTYgLTE0Ni45MzUxNiwwIC0yNjQuNjY5OTEsLTExNy43MzQ4MiAtMjY0LjY2OTkzLC0yNjQuNjY5OTYgMCwtOTkuMTg3NjMgNTMuNjg5ODMsLTE4NS4wMDU5NiAxMzMuNzU1ODYsLTIzMC4zNDc2NiBMIDIyOS42MjY5NSw0NjIuNzUgQyAxMDMuMDI0Nyw1MjguMjI0NzQgMTYuMDQ4ODI3LDY2MC41MDUyMyAxNi4wNDg4MjgsODEyLjI3MzQ0IGMgMi4zZS01LDIxNi4zODM3NiAxNzYuNzkwMDYyLDM5My4xNzM4NiAzOTMuMTczODMyLDM5My4xNzM4NiAyMTYuMzgzNzMsMCAzOTMuMTgxNjQsLTE3Ni43OTAxIDM5My4xODE2NCwtMzkzLjE3Mzg2IDNlLTUsLTIxNi4zODM3OCAtMTc2Ljc5Nzg3LC0zOTMuMTczODMgLTM5My4xODE2NCwtMzkzLjE3MzgzIHoiIHN0eWxlPSJjb2xvcjojMDAwMDAwO29wYWNpdHk6MTtmaWxsOiM1OTg2ZjI7ZmlsbC1vcGFjaXR5OjE7c3Ryb2tlLXdpZHRoOjMuNzc5NTM7c3Ryb2tlLWxpbmVqb2luOnJvdW5kOy1pbmtzY2FwZS1zdHJva2U6bm9uZSIvPiYjeGE7ICAgIDxwYXRoIGQ9Im0gMTg5Ljk0MzM2LDg2LjI1IGMgLTk1LjEzMDMzMSwwIC0xNzMuMTc5Njg4LDc4LjA1NTIyIC0xNzMuMTc5Njg4LDE3My4xODU1NSAtNmUtNiw5NS4xMzAzMyA3OC4wNDkzNTMsMTczLjE3OTY4IDE3My4xNzk2ODgsMTczLjE3OTY4IDkuMDE2MTgsMCAxNy44NzU4LC0wLjcwODMyIDI2LjUzMzIsLTIuMDU4NTkgbCAtMzQuODI4MTIsLTg1LjI2NTYyIGMgLTQ0LjE1NzMsLTQuMDg2NjkgLTc3Ljk1NTA4LC00MC41MDcwNSAtNzcuOTU1MDgsLTg1Ljg1NTQ3IDAsLTQ4LjE1MDM5IDM4LjA5OTYyLC04Ni4yNTU4NiA4Ni4yNSwtODYuMjU1ODYgMTMuMTU5NzcsMCAyNS41NTg4OCwyLjg2MjQ2IDM2LjY0NDUzLDcuOTgyNDIgbCA2NC41NTQ2OSwtNjEuOTE5OTIgQyAyNjIuNjA4MzcsOTguNTMzOTEgMjI3LjYyOTI5LDg2LjI1IDE4OS45NDMzNiw4Ni4yNSBaIG0gMTM4Ljg4ODY3LDcwLjE2MjExIC02My40Mjc3Myw2MC44MzU5NCBjIDYuODc2MzgsMTIuNDI2NzggMTAuNzg5MDYsMjYuNzg4MTUgMTAuNzg5MDYsNDIuMTg3NSAwLDIxLjc2NzEyIC03LjgwNDE1LDQxLjQ2NTQgLTIwLjc4NTE2LDU2LjUzMzIgbCAzNC41MjM0NCw4NC41MTk1MyBjIDQ0LjE3Mzg3LC0zMS40ODc1MSA3My4xOTE0MSwtODMuMDc4OTIgNzMuMTkxNDEsLTE0MS4wNTI3MyAwLC0zOC40ODM1NSAtMTIuNzgyLC03NC4xNjUzMiAtMzQuMjkxMDIsLTEwMy4wMjM0NCB6IiB0cmFuc2Zvcm09InNjYWxlKDAuMjY0NTgzMzMpIiBzdHlsZT0iY29sb3I6IzAwMDAwMDtvcGFjaXR5OjE7ZmlsbDojNmY5OGY0O2ZpbGwtb3BhY2l0eToxO3N0cm9rZS13aWR0aDozLjc3OTUzO3N0cm9rZS1saW5lam9pbjpyb3VuZDstaW5rc2NhcGUtc3Ryb2tlOm5vbmUiIGlkPSJwYXRoOTE3OTgiLz4mI3hhOyAgICA8cGF0aCBpZD0icGF0aDg5OTI4IiB0cmFuc2Zvcm09InNjYWxlKDAuMjY0NTgzMzMpIiBkPSJtIDQwNi4xMzY3MiwtNTkuMjMyNDIyIGMgLTU4LjgxNTQ3LDhlLTYgLTEwNy4xMDM1Miw0OC4yODgwNDUgLTEwNy4xMDM1MiwxMDcuMTAzNTE2IDAsMTguNDk0NDUxIDQuNzgxMDEsMzUuOTQ1MDE3IDEzLjE1NjI1LDUxLjE4MzU5NCBsIDQ0LjMxMjUsLTQyLjUwMzkwNyBjIC0wLjQ3NTY3LC0yLjgyMDc3NSAtMC43NzUzOSwtNS43MDc1NjQgLTAuNzc1MzksLTguNjc5Njg3IDAsLTI4LjE3NjM4IDIyLjIzMzc4LC01MC40MTAxNTI1IDUwLjQxMDE2LC01MC40MTAxNTY1IDI4LjE3NjM4LC00ZS02IDUwLjQxMDE1LDIyLjIzMzc3MDUgNTAuNDEwMTYsNTAuNDEwMTU2NSAwLDI4LjE3NjM4MSAtMjIuMjMzNzgsNTAuNDEyMTEzIC01MC40MTAxNiw1MC40MTIxMDkgLTUuMDY4NjksLTEwZS03IC05LjkzNDE3LC0wLjc0NTYzMSAtMTQuNTIzNDQsLTIuMDg5ODQ0IGwgLTQzLjM2MTMzLDQxLjU5MTgwMSBjIDE2LjczMjIzLDEwLjg0Nzk1IDM2LjYxMTIzLDE3LjE4OTQ1IDU3Ljg4NDc3LDE3LjE4OTQ1IDU4LjgxNTQ5LDEwZS02IDEwNy4xMDM1MSwtNDguMjg4MDQgMTA3LjEwMzUxLC0xMDcuMTAzNTE2IDAsLTU4LjgxNTQ4MyAtNDguMjg4MDIsLTEwNy4xMDM1MjMgLTEwNy4xMDM1MSwtMTA3LjEwMzUxNiB6IiBzdHlsZT0iY29sb3I6IzAwMDAwMDtvcGFjaXR5OjE7ZmlsbDojZDZlM2ZiO2ZpbGwtb3BhY2l0eToxO3N0cm9rZS13aWR0aDozLjc3OTUzO3N0cm9rZS1saW5lam9pbjpyb3VuZDstaW5rc2NhcGUtc3Ryb2tlOm5vbmUiLz4mI3hhOyAgPC9nPiYjeGE7PC9zdmc+;" parent="Lif8JBEafslfNm7ranTe-1" vertex="1">
          <mxGeometry x="210.65217391304344" y="183.05102639296186" width="27.962273123563445" height="45.16905762067052" as="geometry" />
        </mxCell>
        <mxCell id="0QRVZLjizYABk1ugPUcg-11" value="" style="verticalLabelPosition=bottom;sketch=0;html=1;fillColor=#282828;strokeColor=none;verticalAlign=top;pointerEvents=1;align=center;shape=mxgraph.cisco_safe.people_places_things_icons.icon2;" parent="Lif8JBEafslfNm7ranTe-1" vertex="1">
          <mxGeometry x="199.56521739130432" y="254.42815249266863" width="55.43478260869565" height="43.28445747800586" as="geometry" />
        </mxCell>
        <mxCell id="0QRVZLjizYABk1ugPUcg-13" value="&lt;font size=&quot;1&quot; style=&quot;&quot;&gt;&lt;b style=&quot;font-size: 9px;&quot;&gt;Extract&lt;/b&gt;&lt;/font&gt;" style="text;html=1;align=center;verticalAlign=middle;whiteSpace=wrap;rounded=0;" parent="Lif8JBEafslfNm7ranTe-1" vertex="1">
          <mxGeometry x="88.69565217391305" y="87.62463343108506" width="66.52173913043478" height="21.114369501466275" as="geometry" />
        </mxCell>
        <mxCell id="0QRVZLjizYABk1ugPUcg-14" value="&lt;font size=&quot;1&quot; style=&quot;&quot;&gt;&lt;b style=&quot;font-size: 9px;&quot;&gt;Transform &amp;amp; load data&lt;/b&gt;&lt;/font&gt;" style="text;html=1;align=center;verticalAlign=middle;whiteSpace=wrap;rounded=0;" parent="Lif8JBEafslfNm7ranTe-1" vertex="1">
          <mxGeometry x="388.04347826086956" y="137.2434017595308" width="72.06521739130434" height="21.114369501466275" as="geometry" />
        </mxCell>
        <mxCell id="Lif8JBEafslfNm7ranTe-3" value="Orchestration&lt;div&gt;&lt;span style=&quot;background-color: initial;&quot;&gt;Composer&lt;/span&gt;&lt;/div&gt;" style="rounded=1;absoluteArcSize=1;arcSize=2;html=1;strokeColor=none;gradientColor=none;shadow=0;dashed=0;fontSize=12;fontColor=#9E9E9E;align=center;verticalAlign=top;spacing=10;spacingTop=-4;fillColor=#F1F8E9;" parent="1" vertex="1">
          <mxGeometry x="180" y="160" width="140" height="360" as="geometry" />
        </mxCell>
        <mxCell id="Lif8JBEafslfNm7ranTe-4" value="&lt;font style=&quot;font-size: 19px;&quot;&gt;Architecture&lt;/font&gt;" style="fillColor=#4DA1F5;strokeColor=none;shadow=1;gradientColor=none;fontSize=14;align=left;spacingLeft=50;fontColor=#ffffff;html=1;" parent="1" vertex="1">
          <mxGeometry x="180" y="120" width="650" height="40" as="geometry" />
        </mxCell>
        <mxCell id="0QRVZLjizYABk1ugPUcg-3" value="" style="editableCssRules=.*;html=1;shape=image;verticalLabelPosition=bottom;labelBackgroundColor=#ffffff;verticalAlign=top;aspect=fixed;imageAspect=0;image=data:image/svg+xml,PHN2ZyB4bWxucz0iaHR0cDovL3d3dy53My5vcmcvMjAwMC9zdmciIHhtbG5zOnY9Imh0dHBzOi8vdmVjdGEuaW8vbmFubyIgd2lkdGg9IjE0LjY0MDAwMDM0MzMyMjc1NCIgaGVpZ2h0PSIyMCIgdmlld0JveD0iMCAwIDE0LjY0MDAwMDM0MzMyMjc1NCAyMCI+JiN4YTsJPHN0eWxlIHR5cGU9InRleHQvY3NzIj4mI3hhOwkuc3Qwe2ZpbGw6I2FlY2JmYTt9JiN4YTsJLnN0MXtmaWxsOiM0Mjg1ZjQ7fSYjeGE7CTwvc3R5bGU+JiN4YTsJPHBhdGggY2xhc3M9InN0MCIgZD0iTTAgMGgxNC42M3YzLjk0aC01LjN2NS4zM0g1LjM1VjMuOTZIMHoiLz4mI3hhOwk8cGF0aCBjbGFzcz0ic3QxIiBkPSJNMy45NSAxMC42N2g1LjM0VjIwSDUuMzV2LTUuMzVIMFY1LjM3aDMuOTV6TTE0LjY0IDIwSDEwLjdWNS4zNmgzLjk0eiIvPiYjeGE7CTxwYXRoIGNsYXNzPSJzdDAiIGQ9Ik0wIDE2LjA2aDMuOTJWMjBIMHoiLz4mI3hhOzwvc3ZnPg==;" parent="1" vertex="1">
          <mxGeometry x="241.25" y="235" width="37.5" height="50" as="geometry" />
        </mxCell>
        <mxCell id="0QRVZLjizYABk1ugPUcg-12" value="" style="shape=image;verticalLabelPosition=bottom;labelBackgroundColor=default;verticalAlign=top;aspect=fixed;imageAspect=0;image=data:image/png,iVBORw0KGgoAAAANSUhEUgAAAWkAAACLCAMAAACUXphBAAABv1BMVEX///8Ax9QArUbkOSEBfO5RUE8R4e4E1ln/dVcMtv9OTUxKSUhIR0ZFREP4+PhCQUCIiIdhYF+rq6qSkpHf3t5sa2p0c3O/v7+zs7MAcu319fVWVVQAytgAu/8AeO7Y2Njn5+cAs/8AqTrjJQD/clJcW1oAqDTNzc0AdvUE2k7jMRSYmJc8OzmioaGxsbD/b00InfeBgH/sLgAGlPUL1uMBu0zm8v31wLv41NDnVEH74+DlPyjsfXH+9vVX1d/pY1N12+Pvk4m87fHyqaHvUzmU4uman5mq6e72d1lsrq+cxfcP2tkExHwDzVVeovJ06/S51vlgxYJGvW/O4/vo9+7F6dFPmvLpZ1nsgXXyrab2xsH52dX5pJbui4D/nIjb9vj/j3iecox7h6+JgKSxY3LWQjI7peHQRz2xlYqjbIF7qai9V1zIi3rvel5Jw/8+u8Jkk8PXhXB51P8EifIKqft9x/u4k4aUUlWNQDajPzSNo584cY5kTUkUcNRNQjUHmqQvho0HjslNNzUBi9gDwYQWmkYDuZEEzWsDrqYN08YCmsQDo7Z6sfQLzLF/0Jx25ZmU6rGv78Xb+Oa45MiT1qpBpVQ/AAAS/ElEQVR4nO2djX/TxhnHFQeF5PTmdyc2sUUSxyGxk7phAQKU0tKVdbAVFlpg67q+rHvtuhW6963r2vVtHesCf/DuTdbd6c4+yXZsKn6f9uPIki3pq0e/e+65kzGMJzoq3T137tylS6++euHC7dcuX/7RnTNn7p7d37948WiPwn3mhaPd4QR0YXWT1SrR5uz5c6/evnznzNn9IzmKEzMz7pHsaILa39yclSvgPnvptefv7o8ThAtBf/NJ90EdIkdRfu72nbNj8hQEOgWkjf3ZQah7vDfPvXZm9LSfQaBnRv61U6j981qoA9xXLo82tgnoVJA2LuqjxrhXNy/cHRlsCjodpI2LV2KhxrBv/3Akuw5Ap4S0cfFcTNQI9pU7w++4B/rE8N/1eCgB6tnZ1dnnh8wYeqDTQzoZ6tnVzaHiOgSdItKGcSkJ6tnVK2cT75EBnSrSCVHPrt5OmIewoGeeGe25TLkurSZCvXk+URry7Ex6SRuvJkM9u3om/r540GkjbVxIivr5uHsSQKeOdHLUl+PtRwQ98+xYTmeadTSoI6BTSNq4nRT1j/T3EQU9880fc4nqtbGjloBOJWnjckLUsz/W+/4XJKBnXhzvOU2pkqLe0UItBT3z3LhPajqVEPUVHdRy0GklbTyfDPX8YNQK0DOvH8VpTaOSod6Z3/lJ/+9VgU4v6WSor8wPQP2iCnQahsZVupMA9fn5/qjVoNVF00o2W0ly/C1gFpN8bgI6kwD1GkatqqKqQatJVx3L8qoJDn/b8RJdoUkoAeodSHp+7V056j6g1QWmRcc0ncUER79oO48N6QSor8xj1FdlqJ/rA1pNugRME+QSHPxjRdq4Gxc1IS2N6r6glZ3xomcVCpbHOq5bbPjhUpVbMvxGkVoNIe0r1k6dzsZETUlLoro/aGVnfMvyGg3P2iJLix7wC7bneU0arsWyA5cAXW1sm3DJKbXwtrbT2gZw2Qy8p5VDa8tT2k7GRB2Qnl+b51EPAK3sIgLQNIwmMEkS2LFBzYZsLdDG+Fpty7FMx3LKeHXZA3ClDdodA5E2mw7ZtkM+3LY8EzhWuzUeVMMqHuoeaSGqB4FWdVwqjp03jLztETp52wTNSrFRcEzHhz5iAqviun4Z4DQj74FaxffzjtluYNJ42y3HxObTaINcw3UrNrCm1EF+GGfEPCTNRfVA0KqOSxkgor4DungRkcaYtiwbBqrvkUSu6lloPQAOXrntWFlCGi92bKtgoKbVxovw4nXGhGpY7cdAzZCGqIPnCQaDVszKg4ixL8Cg9dFr3kYhTlaU4ItLL5CFlmDjmSWLTYBJW4Ro1UG5S9UJ1yZJZY5Eg+eyS0nPr60R1K8PBq3ouORppkZMhLERZN341W0tbnVzAJFuOfY289kwyzNBDZoHbFaLDagiDO6p7frro+ZIU9QaoFWjiAFPCKuJXiBpmjmUgAVxVbMoEYHpBSJdcbgEOiRdQ6RbjmnhbT0AEvU5j0ZoLvvm008P5s2Thj3zfS3QinS64Zm1XBMqVzM92MiJpH1gO7VsvlIEGqQ9s5mjKo0V1nC6OLv5xptvvb05CPaOQHp+rXFCh7Q8yctapkVlYpcN3QPTK1s2yZVt6h7ExA0f9U8E0tA9prUh5OW/swy18OZPn+5Lek0kPb/zng5paZIHm7JalqqGc7O8TfswuKmsBilJw0OkfY8uuu12OUK6StpQ9LX+1No01N7yAtbywlt9wzoCen7t2zpBLd3pIpOPdTA3mOXZ2D66lrMdwith94BEHWQxxpZtb0VIw4+QlLDVbnfHB2pY7S2fXKBafudnq0rQ5yWkf65BWp56lGhuh+TjsEX5tLVVWSxZAOXKZcvqthqVnI1bRKPSNq1Oq9K18edE0sU2sPPFBuxmTmsnEcoNQSO9rXQQsUHUjelnZXsttu1yuFSy2kVIGpQ8x3EA6VJXaw7OJ3KmhVPkrbZlOw78H63c9oL6NLAAeql4Fuqr216SGuzRSAC9sPyGCnWkQYQ+/R0N0tL6UrFUYoKvVSoVce5RgflwLUtSELfTtK1cxyiUiM20ujXbam756O8G+gBWtlTAr34WrS34Y8I0vETQEPVbCtTRBnH+6mDO+sO1JMtz2RbNFZo3cTnO2gkrChqiflOOeqQNokRhPv1NlAS0KqolNq0V0tpzp7/RpH8jAw1R/0KCOmrTO7/UCWnt2Y8dr90Y58lOUgrQEPWvonl11Dt+rdVD1J5V0+hmp7dkMZyUoKF+KqKOZtPv6nBOzYPM/dQP9PI7on9EbHrtPa2QTt0jLlH1Ay1JQMQcb0cPdEqnTrPqDxqifpvzD9E8tPosSOmd/Eg1CDRUP/PQBp1689AAvfzbp5XmoenRT8xDBzTvH5x5rL2rDXpS5lHFo4oNkjWivybUUX+fgl7GAwBKvbMq7bbs/G5GG/REzKOVbdp0VBGhLrc9rz2ZMS8Iennh5P2ndnfvQe3uPnX/JBoGiAZ12CtnQevUpAON4AGXDh4d1J/v2Mh5FjCJ8Pikg/+aRFC/v7Bwf/dYvV4/RoX+vAd5R2gv/2xTbA/Xruq2hUhav+tR7RSQtuVr/TZA8nTPruIFmAPSNvrLmQDp909CzMeiQrifus/B7jWKvfZw59f6zjGjWfMoOXjYti0fc/U9zEx3FkexbTJqT5L0+7syzCHt3fssalL/uJIooGf0euJFj2IBUhgxSedIRDu2WYMveFhnQqQ/qPcBTWizsEmnnLSHazu/jxXQmiG9ZVHS8rnn8Ui38NbArDC1qsmQ/mBpAGcK+6mTy2FQn6cph35uR6Vzdq4Z+Cooy9YHPq1HKosvm+Wz702E9FdaoLGN3LtPg3pzE4X0zru/PBEXtFZIVwLzgO2XL9ugUypDaeYeTXTZgjk4VJMg/ZIuaBrYMBlZ/sMf/wQ5X/1zTOOY0f1BsTIg9zsiNPQ8pCrO6NBcYUYTIP1yHNCY9e7CXxzb/uvVb8fnrJlLExu28ggHmQg5jKip81SPnvQPYoJGrP/2d5h/eR8m4Kz5OzUEcdnAUe0NOysG5zHiDOojJ+3eiw362DFM2vlHAtKaP0aIjRVmHTgDCaabJ9Z0kP7eoPROEtIbH9m2Zf9Ta56jIL3SUoOYh0uzanvIgcSpIB3fOyDna6cytuN8ODd3Oi5ozYIHzsrwFNMSDu4h53rFI+0WW4vb25WWP9xORcX2jo2PPzl1/PjxzL8yc0inYzmIZlm6avWqE+jBZunztn65VCp1q/wysZlGPosW0EOI2RIWyc1LnICUdHWxbHsObO8dzzO7fAPRQB/Lix/Iyt4MDyZQrAQPcb73KeJ8/Homs/LJXFzWuvV/Bm8V24dkbk3BQR2X8BSzaLkN8+tK07Mt1Kuxu0aL9G9oJwhwMmWk85bDVKKs3tOmzC6EySdbnuzNyJZuPM71+uenMOjj38pA1N+dm4sFW3ughbWM0EgE0hbfGcHbwTa02yvagS560KW/eNJ+U9weeN1wCxwA4lMGODsSj4806Gzr8lKs5nDjo88IZxTSYVBrwj6hPWuJNIP0QHHJApgRP5WStivdkFVs0kU7CH4Ltvj0b7vU28SX2D05VjxZO5SP70muihAvoD+lnElIZzLr352b04V94rT+j+Ph1A4Ek/hJfERSailpULJCm3C6RrHtINkUK6cI6Sp1FNsrbeU7hZxHalxWOC6DK4J8V7NDNuLtbRvtkGvG47j0xkfXe6CPY9CZlWtzgk4raJ84PRfjVwjxCfe6Kx07EiBK0uRWdpq4JoJaxEYFKY/XNSucIi0iaSOBtU3f8wv0avSsoRMhGJRj+YpBOXJFYiQeG5+HnGlIw6D+QkSNafO4T5w+Dd+NAbqC7z0zWPRlRQsVafhBuyNuqpflbeP9gBzz6Rb5zl7ThtN8wD4xE1TRuS+v2uI7+rl0/dg1BjQNaSQJaYY4Zoz1/X5oBeGIYIKkLCnEKUmDmm9EpEWa3BM1rpNE69q9G6qG7xnmPshTY+IKjjhUuCjX7h4ufXydBX29B3rl0z6oGcUBTWKYOXIS4zVhMwVpvgZNpUN6kexWTNdszoXxTtkyDHYcMRLwobDOrZ3ibXzJcg7Ng8v0RgWaFpeY6QGulIGcNPcUeU86pPGdE2kOsBGE8Ylj3Cr0VpNspAv4AyZ+z3yLbrV04988aMY8MplIozgs6F5xKVRBVmaSk5b/jIcGaYI0OpJWsLjrzjchOMmAzu5xN2FDuBza5rHxoQD6Okt6/T8jBk2KS9z4IK038RAVWZ70OzVIN9gcnhHJyHv77gLOGJB5wIBHwRHeTThDYS1G0zwioFnz0PGPeKBpn5AP4FwkzBWkuUgKpUGaNAbRMQfaahTZzXp7xaUCuA6xDS9yTmw29cwjYh28eQzIP+KDrspMeVu0bkNFOtprR9IgrcjaDRdwx4MPr3ckqBVFVwd/f5CHkg4imwp+pWMe9Y8ioK8LoLlO+bCgaXFJiK0qnwFgjZg03y9lVOO7qGW2ooEWcB0E2Udwz+Gw525AnW5L/Z7IWTSPAVYdFzRJmyLJczdaxhkHadngjtBAk442WcQBgMMdfTq4IbpiB3FPxzw2rkVCOmIeiq5iMtC0uOQLb9MeBPvWiEkXVDYvtBHYG+gVQdFL8nzcnpKRIWw3nNO9rGEeS1GTjphHv1YxNmjlTYx7JdzI7YRIk2Uygw1FL91jrWcfOCi4m1LLpq9rmAeWFHV80DTpz5VFNU3xCoyFtMQ9RNKdnmXgkSHaVmL76AZ/8ZOBNGx6KZLgKUlLUWvSZURnLoGI8Nucq0zIp2m/BO0Hp9qAeRd3AlB0c6WDPY2Qrn8WBS2xaRVqXbyMyszQkkTsTTnqLE9hW27Et8wgOUJ77PkNKn6grYqeeBgadbz6x5KQltk0kdgsauMN5XtywoFYWCMmLUvZkWiCyeT3hcAeHHYFehfdEnlb2FxnXKv+pb55ZCLJnjZeRh1bYR6BfzCnMGLSpNcdnavdiCRDpMlbxK+hTZDaUzCcwH6DRtGjLsk8+pDOrH8yJGjiiaBZkgmTZpKDEZP2FWPw0ZmBLi36ceZB/NlrVZkkkEqjQZS6hxo0TPYy/xkKNMmaFbPw8kKVc8SkaZE/8nlSxODQkW5UtQa4Y8X2sYVvDW7Q09XJ8TY+1em3cGFNWH/xQHrCg0TKcYqZpSTowiRg1KQLpOoq2EdL2CsS7m5bpJzqcluCHL0KzNY6A1v1e3v/HVheisT1euZaZn09CWpSXFLOli7zna9RkybPHAl9F7cGovZNGkkx1t3ehG++TqVRyKsf2zMMEbU69RCA31Dw6qNF+dBsIOotwepRk6YZpsOVXMpW9L2g1RONLhgyFgbPB6ceGHQEtS7pzHp81Dnp+FIokxvJHTlpOsztZMOZNHT2iDiEuR0M0zrsu60gReWfFtFIPfbIljxqbdLxo7rYrz1EIjWR4LRHTtrIE1SWVWj51WqxEsw7E0cwe2k/31C6lL+wn92BIb0XbPq1fFh85KjJY3FAvQF/KUZP2sjSuWWW4znwP+oRkn/1qEmnT/JrusQ+hIZGN6KRvpbMqdFCfVNNLSrS7VWgIiJD/rTHPAbSRsGLVAOA7J+Xoj0sYWSzQi4Un5O7gxrEPXZrBnUc0vFQt1TTd8VToY8gxh9HFNJH2RP6FeAAnnNOdkANkqcIVRKak/CuPmAYoL7Hf0eIOoZ7xERdbHueN+C3i9G/iePRlHcRbx+6eh4vy59PrKJ/aqctFOpK6FcnxCnw1XyNzr4GAJpISfG8YxftLBIVW5JD6J9O138gfvP/TiUiHQu1j37ZpP8mbvgzKPDSwL99ZqW4zKoq+W5X8Usqxe1sqVlr5sqFiurryM6iU0v86CH0HXCJgg5RxyQNUU/zz7cegfql0zLQPdRxSUPUB0d9clOlPkNbctA91HFJZ1YyqY5qdcdFBdowHp5KRBqiTnNUv6IivfSy+kMYdaw07wlqZXW6H2jDuHUqgVFjpRd1ItAEdSLSqUWtmGY6CLRhHCayjxSjlk9BGAwao05GeuVw/Kc1hZKS1gGNUCcM6nSilnXG9UAj1MlIZzJpRC0hvfSS7ocPEwZ1Zv3WOM9pOhUdRdQHbRgHMEN+glpPEdJxQA+BeiV1qMUCUzzQT6JaXwLpuKBhQn4zKeqH4zif6RVPeumrBF9xY/0Jag1xRdNEoA3j0UqysE4XapZ0QtDQrG8mC+tUoWZIJwYN9TBZw7j+aHRnMu0KBwKGAQ31KBHrFKHukR4SNLSQRKzTgzogPTRopIc312PDTg1qOrg1EtBQhw8ycWEnmmD9GIqQXvre6L7xFoIdh3ZKUL8yatBIB49urMSgnQ7Uu2MAjXX4vxsZXdwJ5rI/foKk6+MAjXVw69GDm5j3AOBpQH3vWP2VMe/i4PDhoxs3M+tQKysK6EkehnnM9MrSuEH3dHB46+GjBw9u3LyJ0K6sIPIUPsR/VEcxMbmaY4aj3u3BwcHh4a1bD5EeQaVxZPGJxqH/AyFY20ylDTbUAAAAAElFTkSuQmCC;" parent="1" vertex="1">
          <mxGeometry x="215" y="300" width="90" height="34.65" as="geometry" />
        </mxCell>
        <mxCell id="ezg6KPL9g4I8Iu30A2BC-1" style="edgeStyle=orthogonalEdgeStyle;rounded=0;orthogonalLoop=1;jettySize=auto;html=1;exitX=0.5;exitY=1;exitDx=0;exitDy=0;" edge="1" parent="1" source="Lif8JBEafslfNm7ranTe-1" target="Lif8JBEafslfNm7ranTe-1">
          <mxGeometry relative="1" as="geometry" />
        </mxCell>
      </root>
    </mxGraphModel>
  </diagram>
</mxfile>
